<svg xmlns="http://www.w3.org/2000/svg" viewBox="0 0 900 700">
  <rect width="900" height="700" fill="#09100b"/>
  <rect x="82" y="60" width="736" height="580" fill="#111a13" stroke="#cdbb88" stroke-opacity=".3" stroke-width="4"/>
  <rect x="108" y="86" width="684" height="528" fill="#0e1510" stroke="#e2d6b1" stroke-opacity=".12" stroke-width="2"/>
  <g fill="none" stroke="#dccb96" stroke-opacity=".24" stroke-width="4">
    <path d="M180 574V240c0-76 60-136 132-136s132 60 132 136v334"/>
    <path d="M456 574V188c0-100 78-178 174-178s174 78 174 178v386"/>
  </g>
  <g transform="translate(450 320)">
    <ellipse rx="198" ry="102" fill="none" stroke="#f1ead4" stroke-opacity=".38" stroke-width="5"/>
    <ellipse rx="128" ry="66" fill="none" stroke="#f1ead4" stroke-opacity=".24" stroke-width="4"/>
    <circle r="54" fill="#5a8660" fill-opacity=".24"/>
    <ellipse rx="16" ry="38" fill="#071009"/>
  </g>
  <g stroke="#e6dcc2" stroke-opacity=".22" stroke-width="3">
    <path d="M250 318H650"/><path d="M450 118V520"/><path d="M322 192l256 256"/><path d="M322 448l256-256"/>
  </g>
</svg>
