<svg xmlns="http://www.w3.org/2000/svg" viewBox="0 0 1600 1200">
  <defs>
    <linearGradient id="stone" x1="0" y1="0" x2="0" y2="1">
      <stop offset="0%" stop-color="#162118"/>
      <stop offset="55%" stop-color="#0d140f"/>
      <stop offset="100%" stop-color="#060907"/>
    </linearGradient>
    <radialGradient id="lamp" cx="50%" cy="0%" r="80%">
      <stop offset="0%" stop-color="#d8efc9" stop-opacity=".46"/>
      <stop offset="35%" stop-color="#7bb084" stop-opacity=".18"/>
      <stop offset="100%" stop-color="#0c130d" stop-opacity="0"/>
    </radialGradient>
  </defs>
  <rect width="1600" height="1200" fill="url(#stone)"/>
  <g opacity=".22" stroke="#c7bb91" stroke-width="6" fill="none">
    <path d="M130 1110V274c0-120 86-214 206-214s206 94 206 214v836"/>
    <path d="M530 1110V274c0-120 86-214 206-214s206 94 206 214v836"/>
    <path d="M930 1110V274c0-120 86-214 206-214s206 94 206 214v836"/>
  </g>
  <g fill="#1c2a20">
    <rect x="164" y="308" width="344" height="728" rx="8"/>
    <rect x="564" y="308" width="344" height="728" rx="8"/>
    <rect x="964" y="308" width="344" height="728" rx="8"/>
  </g>
  <g fill="#352e22" opacity=".88">
    <rect x="186" y="342" width="300" height="24"/><rect x="186" y="492" width="300" height="24"/><rect x="186" y="642" width="300" height="24"/><rect x="186" y="792" width="300" height="24"/><rect x="186" y="942" width="300" height="24"/>
    <rect x="586" y="342" width="300" height="24"/><rect x="586" y="492" width="300" height="24"/><rect x="586" y="642" width="300" height="24"/><rect x="586" y="792" width="300" height="24"/><rect x="586" y="942" width="300" height="24"/>
    <rect x="986" y="342" width="300" height="24"/><rect x="986" y="492" width="300" height="24"/><rect x="986" y="642" width="300" height="24"/><rect x="986" y="792" width="300" height="24"/><rect x="986" y="942" width="300" height="24"/>
  </g>
  <g fill="#a08959" opacity=".8">
    <circle cx="336" cy="186" r="30"/><circle cx="800" cy="126" r="38"/><circle cx="1264" cy="186" r="30"/>
  </g>
  <g opacity=".55">
    <ellipse cx="336" cy="246" rx="242" ry="220" fill="url(#lamp)"/>
    <ellipse cx="800" cy="176" rx="282" ry="250" fill="url(#lamp)"/>
    <ellipse cx="1264" cy="246" rx="242" ry="220" fill="url(#lamp)"/>
  </g>
  <g fill="#cdb784" fill-opacity=".12">
    <rect x="208" y="382" width="26" height="84"/><rect x="246" y="382" width="18" height="84"/><rect x="274" y="382" width="30" height="84"/><rect x="316" y="382" width="22" height="84"/><rect x="352" y="382" width="26" height="84"/><rect x="390" y="382" width="20" height="84"/><rect x="420" y="382" width="36" height="84"/>
    <rect x="608" y="382" width="26" height="84"/><rect x="646" y="382" width="18" height="84"/><rect x="674" y="382" width="30" height="84"/><rect x="716" y="382" width="22" height="84"/><rect x="752" y="382" width="26" height="84"/><rect x="790" y="382" width="20" height="84"/><rect x="820" y="382" width="36" height="84"/>
    <rect x="1008" y="382" width="26" height="84"/><rect x="1046" y="382" width="18" height="84"/><rect x="1074" y="382" width="30" height="84"/><rect x="1116" y="382" width="22" height="84"/><rect x="1152" y="382" width="26" height="84"/><rect x="1190" y="382" width="20" height="84"/><rect x="1220" y="382" width="36" height="84"/>
  </g>
</svg>
